<svg xmlns="http://www.w3.org/2000/svg" viewBox="0 0 180 56" role="img" aria-labelledby="title">
  <title id="title">Semantic Scholar</title>
  <rect width="180" height="56" rx="10" fill="#ffffff"/>
  <g transform="translate(15 7) scale(.82)">
    <path d="M10 8c12 3 22 10 28 21V6H18c-3 0-5 1-8 2z" fill="#4db5e8"/>
    <path d="M21 1h43c2 0 3 1 3 3v5c-8 1-14 3-18 7-6 6-9 15-11 28C34 24 27 11 21 1z" fill="#087996"/>
    <path d="M2 12c13 4 24 14 33 30C25 28 14 20 2 17v-5z" fill="#0b6f8f"/>
    <path d="M12 23c10 4 18 11 25 22C27 36 18 31 8 29l4-6z" fill="#43b3e4"/>
    <path d="M28 36 42 55C55 33 73 18 96 8 73 22 55 42 43 66L22 42z" fill="#ffc81f"/>
  </g>
  <text x="78" y="24" font-family="IBM Plex Sans, Arial, sans-serif" font-size="14.5" font-weight="800" fill="#0f233d">SEMANTIC</text>
  <text x="78" y="40" font-family="IBM Plex Sans, Arial, sans-serif" font-size="16.5" font-weight="900" fill="#0f233d">SCHOLAR</text>
</svg>
